<?xml version="1.0" standalone="no"?>
<!DOCTYPE svg PUBLIC "-//W3C//DTD SVG 1.1//EN" "http://www.w3.org/Graphics/SVG/1.1/DTD/svg11.dtd" >
<svg xmlns="http://www.w3.org/2000/svg">
<metadata></metadata>
<defs>
<font id="SocialIconsMedium" horiz-adv-x="512" >
<font-face units-per-em="2048" ascent="1638" descent="-410" />
<missing-glyph horiz-adv-x="500" />
<glyph horiz-adv-x="0" />
<glyph horiz-adv-x="0" />
<glyph unicode="&#xd;" />
<glyph unicode=" " />
<glyph unicode="A" horiz-adv-x="1644" d="M8 219q0 94 58 158q59 65 151 65q109 -4 168 -65q61 -66 61 -166v-4q0 -92 -69 -150q-70 -57 -164 -57q-84 0 -145 61q-59 59 -60 158zM8 768v322q223 0 434 -89q205 -86 365 -253q276 -295 283 -748h-320q0 311 -233 549q-213 219 -529 219zM8 1327v322h29 q678 0 1155 -492q233 -240 342 -549q55 -158 84 -306t29 -294v-8h-320v8q0 129 -25.5 255t-74.5 253t-116 229.5t-153 188.5q-94 94 -201.5 167t-236.5 124q-258 102 -512 102z" />
<glyph unicode="B" horiz-adv-x="1646" d="M4 512v643q2 49 19 102q14 47 41.5 103.5t80.5 116.5q53 59 111.5 92t108.5 49q57 20 114 27h395q41 -2 91 -19q41 -14 94 -42t112 -75q37 -31 68 -72.5t54.5 -87.5t35.5 -93.5t12 -88.5v-4q0 -51 11.5 -77.5t27.5 -41.5q18 -16 41 -20h131q6 2 15 0q16 -4 45 -29 q20 -16 23 -35.5t3 -23.5v-455q-6 -51 -22 -104q-14 -45 -38 -98.5t-65 -98.5q-59 -66 -119.5 -102.5t-110.5 -53t-84 -19.5t-36 -3h-698q-53 6 -107 27q-47 16 -101 45.5t-103 79.5q-53 53 -84 115.5t-45 115.5q-18 63 -21 127zM434 1096q-1 -3 -1 -5q0 -6 3 -12 q4 -8 10.5 -17t18.5 -20q10 -8 19.5 -11t19.5 -5t20 -2h305q10 -2 21 2q23 4 41 23q10 10 15 21t9 20q2 8 3 18v31q0 6 -3 14q-4 16 -24 37q-10 10 -20.5 14t-20.5 8t-21 5h-309q-8 0 -16 -3q-20 -4 -39 -20q-12 -10 -17.5 -19.5t-9.5 -17.5t-4 -18v-43zM436 498 q-1 -3 -1 -5q0 -6 3 -12q4 -8 9.5 -16t17.5 -16q10 -10 21.5 -13.5t19.5 -5.5q4 -1 8 -1l8 1h602q10 0 21 2q20 4 39 23q16 20 24 34q4 8 6 15v39q0 6 -4 14q-6 14 -20 33q-10 10 -22.5 17t-22.5 11q-12 4 -27 7h-592q-10 0 -20 -2q-16 -2 -41 -21q-10 -8 -15.5 -16 t-9.5 -15q-4 -8 -4 -16v-57z" />
<glyph unicode="C" horiz-adv-x="2166" d="M-2 793q0 109 38 203t105.5 163.5t159.5 109.5t201 40q90 0 178 -38t156.5 -103.5t111.5 -153.5t43 -187q0 -96 -38 -187t-103.5 -161.5t-151.5 -113.5t-180 -43q-102 0 -195.5 36.5t-166 101t-115.5 150t-43 183.5zM1171 823q0 100 38 190.5t104.5 158t154.5 107.5 t187 40q104 0 197.5 -37t162 -101.5t108.5 -153.5t40 -196q0 -111 -40 -203.5t-107.5 -159.5t-153.5 -103.5t-179 -36.5q-102 0 -195 39t-164 106.5t-112 157.5t-41 192z" />
<glyph unicode="D" horiz-adv-x="1699" d="M6 72v721h811v-791h-737h-6q-10 0 -20.5 3t-24.5 18q-14 12 -19 30q-4 8 -4 19zM897 874v117l117 -117h-117zM897 1100v112l336 -338h-115zM897 1315v115l553 -556h-115zM897 1538v115l776 -779h-110zM1004 1657l122 2l572 -572v-129zM1241 1659l119 -2l340 -342v-119z M1477 1659l110 -2l113 -117v-113zM1659 1661h41v-45z" />
<glyph unicode="E" horiz-adv-x="2596" d="M10 334q2 18 16.5 25.5t33 9.5t37 5t26.5 15q27 58 27 147v16q-2 100 -3 228q-1 92 3 175q1 28 2 52q0 49 -5 87q-4 25 -14 53.5t-20 38.5q-12 8 -25.5 10t-25 4t-19.5 7t-10 24q2 12 10 16t18.5 4t21.5 -1t17 -1q48 1 100 1h54q82 -1 165 -1t160.5 3t139.5 14h6 q13 0 19 -6q6 -8 6 -22.5t-4.5 -32t-4.5 -31.5q0 -16 2 -37t2 -39.5t-6 -30.5t-26 -12q-10 8 -13.5 16t-3.5 17.5v19.5t-6 20q-18 33 -71.5 46.5t-118 13.5t-127 -6t-101.5 -13q-12 -31 -15 -71.5t-3 -85.5t2 -89t4 -81q11 1 23 0q24 0 52 -2l84 -8q24 -2 48 -2q17 0 33 2 q39 2 65 16q16 8 23.5 21.5t10.5 26.5t7 28.5t17 31.5q20 0 26 -11t5 -28.5t-5 -38t-4 -36.5q-2 -25 2 -51.5t6 -52t-1 -45t-19 -27.5q-18 6 -24.5 18t-9.5 25.5t-8 28t-22 24.5q-25 18 -61 21q-18 2 -37 1.5t-39 -1.5q-41 -3 -83 -7q-28 -3 -53 -3q-12 0 -24 1 q-10 -25 -14 -62.5t-6 -78.5q-1 -27 -1 -54v-27q1 -40 5 -71q0 -12 4 -34.5t12 -32.5q24 -35 90 -41q26 -2 54 -2q42 0 86 5q74 9 135 29.5t76 40.5q10 14 13 31t5 32t6 30.5t17 27.5q33 -6 40 -25.5t2 -45t-17.5 -54t-14.5 -53.5q-4 -25 4 -43t-8 -37q-64 11 -148 13 q-32 1 -64 1q-55 1 -112 -1q-92 -2 -185 -7q-46 -2 -89.5 -2t-83.5 2q-16 2 -40 -1t-28 20zM879 864q2 18 8 26.5t15 11.5t19.5 6t20.5 10q25 16 40 39.5t28.5 49t26 51t30.5 48.5h12q14 -12 15.5 -32.5t-3 -43t-8.5 -47.5t2 -49q20 -8 49 -7l58 2t55.5 0t42.5 -11 q2 -29 -4 -54h-194q1 -18 1 -38q1 -43 -5 -97q-8 -80 -8.5 -155.5t19 -129t79.5 -55.5q18 0 31.5 7t24.5 13.5t23.5 9.5t28.5 -5q0 -37 -34 -66t-78 -41q-25 -7 -51 -7q-19 0 -39 4q-46 9 -72 46q-31 38 -32 102v19q0 55 5 113q6 68 8 128v10q0 55 -22 91q-8 14 -22.5 20.5 t-29 10.5t-25.5 7t-15 13zM1388 345q9 22 13 50q0 20 -3 46t-3 47.5t9 36t36 14.5q8 -16 10 -28.5t3 -23t2 -20.5t7 -25q16 -40 68 -62q49 -22 98 -21h4q51 1 87 32q27 23 27 66q0 14 -3 30q-8 41 -57.5 66t-106.5 48.5t-107.5 54t-60.5 83.5q-4 20 -4 39q-1 38 17 70 q26 46 75 71t115 27q6 0 11 1q60 0 124 -19q14 2 21.5 10t19.5 12h4q12 0 16.5 -9t3 -22.5t-4.5 -27.5t-3 -27q0 -16 1 -36.5t-1 -38t-9 -28.5t-25 -9q-10 12 -14.5 21t-6.5 18.5t-4 18.5t-10 21q-17 31 -57 45q-33 12 -65 13q-7 0 -13 -1q-38 -4 -66 -24q-27 -19 -27 -56 v-5q0 -47 45 -72.5t101.5 -48.5t109 -50.5t70.5 -80.5q12 -34 12 -65q0 -17 -4 -34q-10 -46 -39.5 -80t-76 -53.5t-99.5 -19.5h-10q-36 1 -71 13q-31 11 -62 11q-8 0 -17 -1q-14 0 -22 -4.5t-14.5 -8.5t-15.5 -6t-27 2q-5 9 -5 20q0 10 4 20zM1892 893v35q4 2 5.5 4t5.5 2 q28 -7 63 -7h8q40 1 81.5 2t77.5 1t56 -12q2 -18 -6 -24.5t-21.5 -9.5t-26.5 -4t-19 -10q0 -59 15 -108t36.5 -95t44 -93.5t35.5 -98.5q29 27 47 76t45 102q10 23 24.5 48.5t25.5 51t16 50t-3 45.5q-6 16 -18 21t-24.5 8.5t-22.5 10.5t-17 30q16 18 57.5 14t82.5 -4 q39 0 77.5 2t59.5 -8q-4 -20 -16.5 -30.5t-28 -18t-31.5 -15.5t-29 -22q-27 -33 -50 -87.5t-52 -111.5q-33 -68 -68.5 -153t-74.5 -168t-82 -155.5t-90 -113.5q-18 -16 -55.5 -31.5t-69.5 -15.5t-50 20q-8 9 -8 24q0 19 11 48q23 16 59.5 12t54.5 -18q31 14 58.5 41t49 60.5 t35 71.5t13.5 75q0 31 -9.5 66.5t-23.5 73.5t-30.5 76t-28.5 68q-16 43 -32.5 89.5t-37 85t-49.5 66.5t-70 34z" />
<glyph unicode="F" horiz-adv-x="804" d="M12 799v297h168v223q0 66 22.5 125t62.5 105t92.5 73t113.5 27h328v-289h-172q-35 0 -59.5 -28.5t-24.5 -55.5v-178h260l-33 -293h-227v-801h-361v795h-170z" />
<glyph unicode="G" horiz-adv-x="1611" d="M12 848q1 99 21 156q33 86 82 181t129 180t199.5 152.5t295.5 100.5q33 6 79 11t100 5q47 0 96 -5t96 -17q41 -12 111.5 -37t139.5 -52.5t119 -52t50 -36.5q0 -2 -2 -4l-160 -164l-106 -27l51 109q-55 45 -113 82q-49 33 -108.5 60.5t-114.5 35.5q-29 4 -57.5 6t-57.5 2 q-53 0 -110.5 -13.5t-118.5 -47.5q-180 -104 -266 -249t-86 -337v-33.5t2 -34.5q6 -86 32.5 -174t75.5 -170t121 -151.5t168 -118.5q59 -31 156.5 -54.5t203.5 -23.5q68 0 132.5 12.5t119.5 40.5v25q0 10 1 25.5t1 31.5q0 35 -1 76t-1 76v82h-338l172 104h480l-70 -80v-373 l-330 -114q-66 -16 -130 -21.5t-124 -5.5q-96 0 -171.5 9.5t-110.5 15.5q-106 31 -168 50t-106 45t-85 62.5t-104 100.5q-53 51 -90 121.5t-60.5 145.5t-34 150.5t-10.5 141.5z" />
<glyph unicode="H" horiz-adv-x="1650" d="M6 815q0 168 64.5 317.5t175 260t259 175t318.5 64.5t319.5 -64.5t261.5 -175t176.5 -260t64.5 -317.5q0 -170 -64.5 -319.5t-176.5 -261t-261.5 -176t-319.5 -64.5t-318.5 64.5t-259 176t-175 261t-64.5 319.5zM143 780q2 -123 49.5 -232.5t129.5 -195.5 q104 156 250.5 266.5t320.5 169.5q-12 23 -22.5 49.5t-18.5 49.5q-154 -53 -305.5 -82t-308.5 -29q-23 0 -46.5 2t-48.5 2zM145 915h93q141 0 279.5 24t275.5 75q-57 104 -127 205.5t-156 199.5q-143 -76 -239.5 -207t-125.5 -297zM424 256q92 -59 191.5 -92t207.5 -33 q57 0 110.5 7t106.5 26q-10 129 -36.5 254t-65.5 241q-160 -53 -290 -155.5t-224 -247.5zM647 1470q160 -197 273 -407q198 88 376 242q-94 92 -216 141t-257 49q-88 0 -176 -25zM977 938q14 -29 25.5 -56.5t23.5 -56.5q57 10 112.5 18.5t108.5 8.5q63 0 128 -10.5 t132 -26.5q0 104 -31.5 200.5t-89.5 182.5q-94 -80 -197.5 -146.5t-211.5 -113.5zM1071 694q37 -115 60.5 -231.5t39.5 -237.5q125 72 209 191t113 264q-66 16 -125 23.5t-121 7.5q-43 0 -88 -4.5t-88 -12.5z" />
<glyph unicode="I" horiz-adv-x="1673" d="M12 1425v9q0 39 13.5 74.5t38 63t58.5 44t73 16.5h4q41 0 76.5 -15t63.5 -42t44 -63.5t16 -77.5v-9q0 -39 -15 -73.5t-41 -60t-60.5 -40t-73.5 -14.5h-2q-39 0 -75 14.5t-62.5 40t-42 59t-15.5 74.5zM14 0l2 1126h377v-1126h-379zM573 2v1124h381v-110q6 2 26.5 21.5 t60.5 41t103.5 39t158.5 17.5q119 0 190.5 -37t110 -90.5t52 -111.5t17.5 -101v-795l-385 2v750q-2 8 -12 24.5t-29.5 33.5t-48.5 29.5t-68 12.5h-4q-43 0 -75.5 -12.5t-54 -27.5t-32 -32.5t-10.5 -25.5v-754z" />
<glyph unicode="J" horiz-adv-x="2369" d="M6 1223h201l10 -138h6q16 27 41 54.5t58.5 51t80 38t105.5 14.5q92 0 159.5 -46t98.5 -124h4q25 39 53.5 66.5t59.5 48.5q41 27 86 41t104 14q57 0 112.5 -20.5t98.5 -68.5t69.5 -125t26.5 -187v-547h-227v512q0 117 -40 181.5t-126 64.5q-59 0 -102 -36t-62 -87 q-6 -16 -9 -37t-3 -41v-557h-227v539q0 98 -39 158.5t-121 60.5q-66 0 -110 -42t-60 -89q-12 -37 -12 -78v-549h-228v651q0 80 -2 148.5t-6 128.5zM1509 745q0 96 29 186.5t86 159t142 110.5t196 42q113 0 189.5 -42t122.5 -106.5t66.5 -145t20.5 -156.5q0 -68 -6 -99h-622 q2 -63 26.5 -108t63.5 -75t90 -44t106 -14q82 0 142.5 12t113.5 31l35 -160q-59 -27 -141 -43.5t-182 -16.5q-113 0 -202 33t-150.5 94.5t-93.5 148.5t-32 193zM1733 858h407q0 33 -8 72t-29.5 72.5t-59.5 57t-95 23.5q-55 0 -94 -21.5t-65 -55t-39 -73.5t-17 -75z" />
<glyph unicode="K" horiz-adv-x="1617" d="M10 1436h1608v-1217h-1606zM119 444l397 398l-397 397v-795zM193 348h1220l-407 406q-51 -51 -93.5 -77t-105.5 -26h-6q-63 0 -105.5 32t-89.5 77zM203 1327l477 -475q23 -23 48.5 -45.5t66.5 -22.5h10q47 0 73.5 16.5t55.5 45.5l483 481h-1214zM1100 836l399 -400v799z " />
<glyph unicode="L" horiz-adv-x="2656" d="M-4 791v14q0 172 61.5 306t159.5 227.5t223 143.5t252 56q123 -8 214 -34.5t154.5 -59.5t104.5 -70t65.5 -67.5t37 -52t20.5 -23.5q25 -25 61.5 -111t86 -206.5t111 -263t134.5 -279.5q29 -55 90.5 -85t139.5 -30q45 0 97 11.5t106 37.5q18 10 37.5 31.5t35 50.5 t24.5 61.5t9 65.5q0 27 -6 51.5t-23 46.5q-33 41 -79 68t-99 46t-109.5 35.5t-110.5 40t-104.5 58.5t-89.5 90q-61 90 -61 203q0 74 27.5 145.5t81.5 118.5q66 59 139.5 76.5t132.5 17.5q41 0 73.5 -2t51.5 -6q43 -6 83 -36.5t71 -65.5q37 -41 69 -90l-145 -72 q-25 33 -40.5 49.5t-27.5 25.5t-25.5 14t-37.5 18q-4 0 -7.5 -1.5t-7.5 -1.5q-25 0 -44 4.5t-40 4.5q-27 0 -53 -19q-37 -25 -57.5 -40t-30.5 -29.5t-14 -29.5t-13 -40q-4 -10 -4 -21.5v-23.5q0 -37 8.5 -69.5t24.5 -43.5q76 -55 145.5 -80.5t134 -44t125 -40t119.5 -70.5 q37 -31 61.5 -61.5t38 -65.5t19.5 -78t6 -98q0 -92 -32.5 -170t-94 -136.5t-148.5 -91t-194 -32.5h-26q-68 0 -128.5 19t-111.5 52t-92 75t-66 89q-66 119 -106.5 217t-77.5 193.5t-81 197t-116 226.5q-25 41 -68.5 77.5t-101 64.5t-122 44t-129.5 16h-9q-104 0 -199.5 -41 t-166 -112.5t-112.5 -168.5t-42 -208v-4q0 -115 39 -215.5t110.5 -175t170 -117.5t219.5 -43h6q113 0 197 42t141 95q68 59 113 137l83 -202q-18 -20 -40 -43l-41 -41t-46 -43q-27 -23 -74.5 -48.5t-108 -47t-129 -35t-134.5 -13.5h-10q-119 0 -240 53.5t-218 150.5 t-158.5 232.5t-61.5 299.5z" />
<glyph unicode="M" horiz-adv-x="1583" d="M27 446v312q0 82 18 137t49 88t70 46t80 13q47 0 80.5 -17t56.5 -40q27 -25 47 -57q20 23 49 43q25 16 63 30.5t89 14.5q55 0 97 -23.5t69.5 -51.5t42.5 -51l14 -24q31 25 68 45q33 16 74.5 31.5t95.5 15.5h4q61 0 119.5 -22.5t105.5 -64.5t80 -103t43 -139v-668h-709 v322h-375v163h-331zM88 1219q0 31 10.5 60.5t29.5 53t46 37.5t57 14q63 0 112.5 -43t49.5 -108v-8q0 -59 -42 -104.5t-107 -45.5q-61 0 -108.5 42.5t-47.5 101.5zM430 1241v4q0 39 15.5 73t42 59.5t61.5 40t74 14.5t72.5 -17.5t58 -44.5t39 -60.5t14.5 -66.5 q0 -37 -15.5 -71.5t-42 -61.5t-60.5 -43t-71 -16t-71.5 15t-60 41t-41 60.5t-15.5 73.5zM831 1266q0 53 20.5 101t55.5 84t83 56.5t102 20.5q49 0 95 -20.5t82 -56.5t57.5 -84t21.5 -101t-22.5 -100.5t-59.5 -82t-83 -55t-93 -20.5q-53 0 -100.5 20.5t-82.5 55t-55.5 82 t-20.5 100.5z" />
<glyph unicode="N" horiz-adv-x="942" d="M4 551q0 51 38 90t87 39q47 0 89 -33t44 -82q0 -14 -1 -20t-1 -9.5t-1 -6.5t-1 -9l158 -106v352l-219 156q-10 -4 -16.5 -7.5t-12.5 -6.5t-15.5 -5t-25.5 -2l-2 -2q-18 0 -40 10.5t-40 26.5t-29.5 39.5t-11.5 50.5q0 53 38 95t91 42q45 0 87 -36.5t44 -86.5 q0 -27 -3 -30.5t-5 -16.5l160 -98v354l-217 148q-10 -2 -16.5 -4t-13.5 -3t-16.5 -2.5t-25.5 -1.5q-49 0 -86 38t-37 87q0 53 37 91t88 38q45 0 88 -32.5t47 -81.5q0 -27 -1 -30t-1 -17l154 -109v318h112v-566l156 107v7t-1 2t-1 6v20q0 61 41 95t86 34q53 0 92 -35t39 -94 q0 -53 -38 -91t-81 -38q-33 -2 -43 5t-33 11l-217 -152v-356l156 109l-3 15t-1 24q0 41 38 80.5t97 39.5q53 0 89 -35.5t36 -91.5q0 -61 -41 -95t-88 -36q-16 0 -25.5 2t-15.5 5.5t-11 6.5t-14 5l-217 -148v-360l158 108q-2 10 -3 14.5t-1 20.5q0 25 11.5 47.5t29.5 40 t40.5 26.5t47.5 9q51 0 90 -35t39 -94q0 -31 -12.5 -54.5t-31.5 -40t-40.5 -25.5t-40.5 -9q-33 0 -42 7t-28 14l-215 -150v-119h-112v361l-221 155q-23 -16 -32 -17t-38 -1q-51 2 -87 41t-36 88z" />
<glyph unicode="O" horiz-adv-x="1873" d="M4 1225q0 100 41 197.5t121 176.5q74 76 164 112t184 36q135 0 252 -68q80 20 174 21q80 0 165 -17.5t167 -51.5t159.5 -85t145.5 -121q74 -74 120 -156.5t72.5 -165.5t37 -163t10.5 -147q0 -47 -3.5 -86t-7.5 -70q33 -59 47.5 -121.5t14.5 -122.5q0 -63 -14.5 -123.5 t-40 -114t-60.5 -97.5t-74 -74q-80 -63 -160.5 -89t-154.5 -26t-137.5 19.5t-112.5 50.5q-94 -16 -174 -17q-115 0 -218.5 27.5t-192.5 75t-162.5 110t-128.5 133.5q-106 135 -144.5 273.5t-38.5 261.5q0 51 5.5 96t13.5 84q-70 115 -70 242zM492 508q0 -57 35.5 -106.5 t99 -86t151.5 -57t193 -20.5q90 0 172 20.5t143.5 60t98 101t36.5 145.5v10q0 117 -55 190t-195 118q-66 20 -140.5 34.5t-138 32t-106.5 42t-43 67.5v2q0 41 18.5 65.5t45.5 38t56.5 17.5t51.5 4h21q43 0 87 -9.5t81 -35.5q20 -16 34.5 -36t30 -37t36 -28.5t55.5 -11.5h10 q43 0 76.5 27.5t33.5 66.5q0 14 -2 19q-10 39 -38.5 81t-82 77.5t-134.5 58t-191 22.5h-12q-78 0 -154 -22.5t-135.5 -64.5t-96 -100t-36.5 -132q0 -100 36.5 -159.5t92 -94.5t121 -52.5t120.5 -31.5q45 -10 98.5 -23.5t129.5 -35.5q37 -10 54 -37t17 -60q0 -53 -43 -98 t-133 -45q-8 0 -15 2t-15 2q-27 2 -48.5 2t-42 3t-41 11.5t-45.5 28.5t-44 46t-38.5 47.5t-42 35.5t-55.5 14h-6q-41 0 -73.5 -28.5t-32.5 -71.5v-8z" />
<glyph unicode="P" horiz-adv-x="1959" d="M2 784q0 111 24.5 210.5t67.5 183.5q63 125 159.5 226t244.5 181l348 -311l-813 -733q-31 125 -31 243zM66 438l376 340l-2 -774q-39 27 -68.5 47.5t-55 41t-49 44t-52.5 56.5t-47 60.5t-33.5 56t-32 59t-36.5 69.5zM547 -51v434h1200q-59 -117 -134 -203t-163 -147.5 t-186.5 -99t-202.5 -58.5q-31 -6 -63.5 -8t-67.5 -2q-55 0 -112.5 7t-109 18.5t-93.5 26.5t-68 32zM606 1624q47 27 134 46.5t184 19.5q102 0 186 -21.5t188 -62.5v-605zM1397 477v1071q49 -18 115.5 -71.5t129 -134t114.5 -186t75 -228.5q6 -39 10 -74t4 -70 q0 -90 -18.5 -163.5t-40.5 -143.5h-389z" />
<glyph unicode="Q" horiz-adv-x="1462" d="M-57 152q37 16 68.5 25t61 18.5t58.5 22.5t62 36q72 51 130 110.5t76 110.5q12 35 16.5 82t8.5 97.5t10 99.5t23 88q16 43 32.5 73.5t36 59.5t45 58.5t60.5 66.5q111 -41 206 -80t171 -51q12 -2 22 -2h21q66 0 124 21.5t136 35.5l98 -248l-190 -80q-29 -12 -56.5 -17 t-52.5 -13.5t-44 -24.5t-30 -49q0 -6 -1 -11.5t-1 -9.5q0 -35 18.5 -57t49.5 -48t71.5 -63.5t83.5 -103.5q27 -41 50.5 -73.5t45 -65.5t43 -68t46.5 -80l-256 -151q-29 37 -49.5 66.5t-42 56t-46 51t-57.5 53.5q-35 31 -73.5 61.5t-73.5 55t-65.5 41t-51.5 16.5 q-27 0 -63.5 -36t-78.5 -84t-87 -98t-88 -77q-49 -31 -90 -52t-82 -37.5t-86.5 -30t-100.5 -27.5zM621 1436q0 57 22.5 110t60 94t91 67t114.5 26t115.5 -23.5t96.5 -63.5t65.5 -93.5t23.5 -114.5t-23.5 -114.5t-64.5 -94.5t-94 -64.5t-115 -23.5q-61 0 -114.5 23.5 t-93 63.5t-62 93.5t-22.5 114.5z" />
<glyph unicode="R" horiz-adv-x="2138" d="M-2 834v4q0 53 21.5 97t56.5 76.5t82 50t100 17.5h8q72 0 114 -27.5t58 -41.5q41 16 74 30.5t64.5 28.5t65.5 26.5t75 22.5q72 20 127 23.5t129 13.5q0 102 16.5 166.5t54.5 116.5q39 53 94.5 75.5t110.5 22.5q66 0 111 -12.5t104 -34.5q4 12 21.5 31.5t44 38t60.5 33 t75 14.5t83 -15.5t76 -44t55.5 -70.5t21.5 -94q0 -51 -19.5 -93t-51.5 -70.5t-73 -45t-82 -16.5h-6q-72 0 -117 27.5t-75 68.5q-25 33 -33 71t-8 69q-53 16 -92 29.5t-95 13.5q-61 0 -94 -30t-55 -77q-20 -44 -20 -83q0 -45 -7 -95q41 -2 75 -5t64.5 -8t62.5 -12.5t71 -17.5 q59 -16 117.5 -42t119.5 -56q27 16 77 42.5t107 26.5q47 0 93.5 -17.5t82 -48t58 -74.5t22.5 -97q0 -90 -42 -143.5t-97 -75.5q0 -6 5 -24.5t5 -51.5q0 -49 -22.5 -127t-95.5 -172q-45 -59 -121 -113.5t-174.5 -97.5t-215 -68.5t-241.5 -25.5h-18q-123 0 -244 24.5 t-226.5 71.5t-191.5 115.5t-141 156.5q-39 61 -53.5 125t-14.5 111q0 23 2 41t6 28q-23 8 -47 32t-46.5 53.5t-37 64.5t-14.5 68zM104 825q0 -41 21.5 -64.5t42.5 -43.5l17.5 31.5t14.5 28t17.5 30t26.5 35.5q20 25 33.5 39t24.5 24t22.5 19.5t27.5 23.5q-47 29 -94 29 q-16 0 -32.5 -2t-35.5 -12q-41 -23 -63.5 -51.5t-22.5 -82.5v-4zM240 541q0 -96 60 -186.5t164.5 -159t247 -109.5t308.5 -41q147 0 285.5 37t245 102.5t171 157.5t64.5 203q0 127 -72 223t-185.5 160.5t-254.5 97.5t-279 33q-133 0 -268 -36t-243.5 -102.5t-176 -162.5 t-67.5 -217zM575 647q0 47 37 85t84 38t82 -34t35 -81q0 -51 -34 -82.5t-81 -31.5q-45 0 -84 30.5t-39 75.5zM641 299q-6 11 -6 21q0 16 16 30q16 23 47 17q14 -4 34 -17.5t53.5 -30t86 -28.5t132.5 -12q76 0 133 13t97 30.5t64.5 32t36.5 14.5q16 2 27.5 -5.5t17.5 -15.5 q16 -18 9 -38.5t-11 -24.5q-27 -20 -69.5 -40t-94 -35t-106.5 -24.5t-107 -9.5q-47 0 -104 10.5t-110.5 27.5t-93.5 39.5t-52 45.5zM1212 647q0 49 35 86t86 37q20 -4 41 -17.5t38.5 -30.5t27.5 -34.5t10 -28.5v-2q0 -47 -32 -81.5t-79 -34.5q-45 0 -86 27.5t-41 78.5z M1579 1290q37 -35 90 -35t90 34t37 83v4q0 53 -37 90t-90 37q-49 0 -90 -36q-39 -34 -39 -82q0 -58 39 -95zM1671 948q33 -29 54.5 -43t46.5 -47l86 -139q23 18 43 38.5t20 61.5v15q0 70 -50 106.5t-106 36.5h-4q-23 0 -35 -2t-20 -6t-15.5 -9.5t-19.5 -11.5z" />
<glyph unicode="S" horiz-adv-x="2201" d="M2 489v302h377v-302q0 -47 32.5 -82.5t82.5 -35.5q47 0 79.5 35.5t32.5 82.5v685q0 100 39 189t105.5 156.5t155.5 106.5t192 39q102 0 191 -39t155.5 -106.5t104.5 -156.5t38 -189v-138l-223 -69l-156 69v138q0 47 -31.5 80.5t-78.5 33.5t-79 -33.5t-32 -80.5v-699 q0 -102 -39 -190t-106.5 -151.5t-157.5 -99.5t-190 -36q-102 0 -191.5 39t-156 105.5t-105.5 155.5t-39 191zM1208 475v309l156 -69l223 69v-309q0 -51 33 -84t80 -33q51 0 84 33t33 84v301h374v-301q0 -102 -37.5 -192t-104.5 -157t-157 -104.5t-192 -37.5 q-100 0 -189.5 37.5t-157 104.5t-106.5 157t-39 192z" />
<glyph unicode="T" horiz-adv-x="2519" d="M0 63q61 -6 123 -6q184 0 346 58.5t297 163.5q-86 2 -163 28.5t-139.5 74.5t-109.5 112.5t-71 142.5q23 -4 47 -6t49 -2q72 0 137 18q-90 18 -166 64.5t-131 113t-87 150.5t-32 178v6q109 -61 236 -63q-104 70 -168 182.5t-64 247.5q0 72 18.5 137.5t53.5 122.5 q94 -117 213 -213t254 -166t285.5 -112t312.5 -50q-6 29 -10 58.5t-4 60.5q0 106 41 200.5t111.5 164t164.5 110.5t201 41q113 0 209 -44t168 -120q178 37 327 127q-29 -92 -87 -165.5t-138 -121.5q78 10 151.5 30.5t143.5 51.5q-51 -78 -115.5 -145.5t-140.5 -122.5v-67 q0 -170 -43 -345.5t-127 -339t-209 -307t-287.5 -250t-364.5 -168t-439 -61.5q-221 0 -420 60.5t-373 170.5z" />
<glyph unicode="U" horiz-adv-x="1871" d="M-4 600v121h469v-121h-160v-727h-147v727h-162zM143 1827h168l115 -375h6l113 375h170l-199 -547v-387h-172v367zM522 -25v523h135v-475q0 -14 4.5 -23.5t4.5 -13.5q6 -6 32 -6q4 0 13.5 1t25.5 11q8 4 17.5 12t17.5 19v475h137v-625h-137v72q-39 -45 -74 -60 q-41 -18 -80 -18q-51 0 -71 22q-12 20 -18.5 39t-6.5 47zM729 1065v356q0 78 57 133q35 23 75 35.5t93 12.5q98 0 154 -54q31 -23 44 -57.5t13 -69.5v-356q0 -94 -57 -135q-61 -57 -160 -58q-53 0 -92 14.5t-70 43.5q-57 51 -57 135zM883 1051q0 -12 5 -21.5t9 -17.5 q18 -21 51 -21q27 0 47 21q16 16 17 39v379q0 25 -17 34q-12 8 -22 13.5t-25 5.5q-33 0 -47 -19q-18 -10 -18 -34v-379zM1012 -127v848h137v-268q12 12 27.5 21t29.5 18q12 10 29 12t35 2q55 0 96 -37q14 -23 23.5 -50.5t9.5 -68.5v-346q0 -37 -9.5 -60.5t-23.5 -41.5 q-29 -35 -88 -35q-20 0 -39.5 4t-32.5 8q-14 8 -29.5 17.5t-27.5 21.5v-45h-137zM1149 -8q12 -14 31 -23q10 0 16 -4t16 -4q14 0 21.5 5t17.5 14q4 6 4 43v319q0 18 -1 29.5t-9 21.5q-6 6 -16 11.5t-23 5.5q-10 0 -16 -4.5t-16 -4.5q-6 -4 -13.5 -7t-11.5 -9v-393z M1288 1006v579h158v-534q0 -29 2 -33q16 -12 33 -12q18 0 47 16q20 8 45 37v526h156v-692h-156v76q-20 -23 -44 -37t-48 -29q-18 -8 -41 -16t-41 -8q-29 0 -48.5 10t-33.5 26q-10 12 -19.5 35t-9.5 56zM1470 51v283q0 74 58 129q57 51 145 51q49 0 84 -11t60 -34 q25 -29 38 -59.5t13 -75.5v-164h-258v-119q0 -23 2 -39t12 -26q10 -16 47 -17q12 0 24.5 3t18.5 8q10 10 12.5 26.5t2.5 44.5v31h139v-31q0 -49 -13.5 -85t-37.5 -64q-51 -45 -154 -45q-88 0 -143 53q-49 55 -50 141zM1610 272h119v62q0 16 -5.5 32.5t-9.5 26.5 q-6 2 -18.5 5t-24.5 3q-16 0 -29.5 -3t-17.5 -5q-10 -10 -12 -26.5t-2 -32.5v-62z" />
<glyph unicode="V" horiz-adv-x="1884" d="M16 1159v10q51 41 101.5 86t101.5 90.5t105.5 87.5t115.5 78q18 10 44 21.5t53.5 17.5t55.5 8.5t54 -6.5q25 -6 46.5 -25.5t40 -44t32.5 -54t22 -56.5q20 -63 33 -135t23 -133q8 -55 14 -120.5t17.5 -132.5t32 -126t61.5 -102q42 -46 80 -46h5q40 3 72.5 32.5t58 73.5 t44.5 79q31 59 56.5 118.5t29.5 116.5q2 21 2 39q1 41 -9 69q-14 40 -43.5 59.5t-74.5 23.5q-22 2 -49 2t-58 -2q33 106 95.5 183t129 126t126 74.5t90.5 30.5q37 6 80 7h10q38 -1 75 -7q42 -8 79.5 -24.5t62.5 -47.5q35 -48 40 -104q2 -19 2 -37q0 -38 -7 -78 q-8 -43 -38 -132t-83 -206t-128 -251t-171 -263q-82 -111 -183.5 -214.5t-228.5 -176.5q-23 -14 -55.5 -27.5t-69.5 -23t-73 -10.5h-6q-33 0 -62 11q-59 27 -101 87.5t-72 135t-50.5 156.5t-38.5 152q-20 82 -41 158.5t-45 148.5q-18 53 -32.5 106.5t-43.5 102.5 q-25 41 -53.5 47t-60 -2t-67.5 -20q-24 -8 -49 -9q-12 0 -24 2q-29 4 -41 30t-33 46z" />
<glyph unicode="W" horiz-adv-x="1845" d="M-4 786q0 199 75.5 370t203.5 297t294 196.5t349 70.5q188 0 357 -72.5t297 -197.5t202.5 -291t74.5 -352v-4q0 -188 -68.5 -358.5t-192.5 -298.5t-295 -203.5t-375 -75.5q-190 0 -357.5 71.5t-293.5 195.5t-198.5 291.5t-72.5 360.5zM92 793q0 -111 21.5 -209.5 t54.5 -163.5q57 -117 160.5 -221.5t228.5 -167.5l-395 1108q-37 -86 -53.5 -173t-16.5 -173zM223 1251q20 0 29.5 -4t36.5 -2q16 0 33.5 1t43 2t62.5 2t90 4q14 0 14 -25q-2 -16 -12 -17.5t-24 -5.5q-25 -6 -41.5 -7t-40.5 -3v-29l299 -897l186 557l-129 365q-16 2 -33 6 q-14 2 -29.5 4t-25.5 4q-8 4 -21.5 4t-13.5 11q0 23 9.5 27.5t19.5 5.5q12 2 22.5 0.5t18.5 -0.5q20 0 37.5 -1.5t38 -2.5t47 -2t67.5 -1q45 0 72 1t48.5 2t44 2t58.5 2q10 0 20.5 -4.5t10.5 -20.5q0 -14 -9 -17.5t-36 -9.5l-78 -2v-33l295 -886q20 88 47 157.5t49.5 137 t38 139t15.5 162.5q0 61 -23.5 109t-51.5 93t-51.5 89t-23.5 96v2q0 63 36 98t122 47q-41 35 -94.5 76t-123 76.5t-157.5 59.5t-201 24q-119 0 -230.5 -37t-203.5 -95.5t-159.5 -128t-98.5 -135.5zM684 -12q23 -25 87.5 -33t135.5 -8q12 0 22.5 1t20.5 1q74 2 142.5 14 t107.5 37l-266 725zM1337 57q70 47 129.5 98.5t107.5 111t85 132t63 162.5q31 113 31 225q0 117 -25.5 220.5t-64.5 179.5q-2 10 -6 10q-2 0 -2 -10t1 -28.5t1 -47.5q0 -35 -1 -79t-18 -91z" />
<glyph unicode="X" horiz-adv-x="1773" d="M4 459l318 532l-234 430h399l240 -473l-311 -489h-412zM684 625l672 1134h407l-639 -1128l406 -740h-430z" />
<glyph unicode="Y" horiz-adv-x="1294" d="M0 588q0 35 10 78t19 84q6 33 10 63.5t12 54t24.5 38t45.5 18.5h2q20 0 76.5 -32t119 -72t118 -79t75.5 -51q10 -16 20.5 -25.5t8.5 -25.5q-2 -20 -20.5 -34.5t-41.5 -20.5q-68 -16 -118 -25.5t-95 -15.5t-88 -10.5t-98 -12.5q-20 4 -31.5 0t-34.5 21q-14 14 -14 47z M133 1487q0 4 2 8t2 10q4 27 25.5 42.5t52.5 25.5t66.5 17t68.5 20q55 18 114.5 30.5t92.5 12.5h10q14 -2 23.5 -11.5t15.5 -21.5t8 -24.5t2 -20.5v-6l37 -627q0 -12 -1 -28.5t-6 -33t-14 -30.5t-26 -21q-12 -4 -22 -4q-29 0 -48.5 19.5t-37.5 40.5l-351 542q-4 18 -9 30.5 t-5 29.5zM229 106q0 29 8.5 41.5t30.5 40.5l287 256q29 18 49 19q16 0 27 -8q10 -8 16 -20.5t8 -41.5l-37 -397q-10 -35 -26.5 -52.5t-44.5 -17.5q-6 0 -10 2q-23 2 -40.5 9.5t-36 17.5t-42 21.5t-56.5 23.5q-63 23 -98 51.5t-35 54.5zM770 743q0 18 8 37t19 35l215 295 q14 14 25.5 23.5t35.5 9.5h6q20 0 39 -14.5t35 -36t30.5 -46t30.5 -45.5q29 -39 54.5 -79.5t25.5 -75.5q0 -23 -13 -39t-32 -27l-358 -82q-4 -2 -19.5 -5t-35.5 -3q-40 1 -58 19q-8 16 -8 34zM795 498q0 18 8 28q14 16 53 17q23 0 51 -6l348 -136q20 -12 35 -25.5t15 -43.5 v-10q-4 -31 -39 -71t-72 -81q-35 -37 -66.5 -75t-74.5 -38h-9q-14 2 -31.5 13.5t-33.5 35.5l-178 347q-6 25 -6 45z" />
<glyph unicode="Z" horiz-adv-x="2611" d="M2 1491h1053v-105l-316 -57l443 -608l454 436h-333v111h862l-27 -90l-240 -21l-620 -569v-430h315v-144h-1009v109l327 43v434l-581 729l-301 51zM1843 61l43 166l189 -61l-50 -166zM1968 358l184 787l416 -146l-448 -706z" />
<glyph unicode="a" horiz-adv-x="1781" d="M-15 361q7 11 25 1q188 -109 414.5 -171t472.5 -62q154 0 313.5 29.5t315.5 91.5q10 2 23.5 8t23.5 10q27 8 40 -10t-11 -33q-37 -37 -76 -53q-70 -43 -151 -76t-165 -54.5t-169 -32.5t-162 -11q-262 0 -486.5 89t-400.5 253q-9 7 -9 14q0 3 2 7zM475 827q0 121 55.5 198 t151.5 114q47 27 101.5 39t113.5 18q80 12 143 12v27q0 35 -0.5 72.5t-23.5 68.5q-16 23 -45 36t-58 13h-16q-51 -6 -90 -33.5t-53 -84.5q-4 -10 -11.5 -21.5t-21.5 -11.5l-189 18q-10 4 -19 12.5t-5 30.5q16 80 55 134.5t92.5 88t116 50t125.5 20.5h39q72 0 153.5 -22.5 t137.5 -73.5q35 -31 52 -69t23.5 -81t6.5 -88v-92v-303q0 -66 24.5 -103.5t52.5 -72.5q14 -29 -6 -47q-29 -27 -72.5 -64t-74.5 -63q-6 -8 -19.5 -8t-23.5 4q-25 20 -41 35.5t-27.5 29t-19.5 27.5t-21 33q-53 -51 -95 -78t-89 -43q-29 -8 -60.5 -13.5t-72.5 -5.5 q-61 0 -113.5 19.5t-91.5 56.5t-61.5 92.5t-22.5 128.5zM754 862q0 -63 29.5 -101t88.5 -38h25q70 20 107 90q33 47 34.5 95t1.5 108v37h-73.5t-69.5 -11q-59 -16 -101 -58t-42 -122zM1436 332q0 7 12 16q18 10 36.5 21.5t41.5 17.5q39 11 79 15q20 2 39 2q18 0 34 -2 q34 -4 57.5 -10.5t29.5 -14.5q4 -4 7.5 -11.5t3.5 -17.5v-8q0 -25 -7.5 -59.5t-22.5 -70.5t-37.5 -70t-53.5 -58q-7 -8 -15 -8q-2 0 -6 1q-12 5 -2 15q8 20 20.5 54t21.5 68t12.5 62.5t-5.5 40.5q-12 19 -59 19h-10q-42 0 -86 -4q-23 -4 -40.5 -5t-31.5 -3q-18 0 -18 10z " />
<glyph unicode="b" horiz-adv-x="2551" d="M0 754v653l8 12h271q10 -53 10 -105q0 -13 -1 -26q-3 -65 -3 -131l2 -82q80 29 159 29q92 0 174 -38t143.5 -102.5t96.5 -147.5t35 -175q0 -94 -37 -174t-99.5 -138.5t-144.5 -92t-174 -33.5q-123 0 -208 46t-136 121.5t-73.5 175t-22.5 208.5zM287 649q0 -68 41 -111.5 t110 -43.5q72 0 120 46t48 117q0 66 -46 108t-109 42q-74 0 -119 -41t-45 -117zM940 952q0 117 2 234t8 233h279v-1196h-287q2 105 2 209q0 78 -1 156q-3 182 -3 364zM1300 750q0 84 2.5 166.5t8.5 166.5h278v-860h-286q2 71 2 141q1 61 -1 122q-4 130 -4 264zM1573 1516 q0 82 51 123.5t129 41.5q33 0 62.5 -15t52 -39.5t36 -55.5t13.5 -62q0 -78 -46 -129t-126 -51q-78 0 -125 56.5t-47 130.5zM1645 537q0 111 23.5 213t76.5 181t140 125t216 46q92 0 174 -35t142.5 -94.5t96.5 -140t36 -175.5q0 -94 -35 -176t-95.5 -143.5t-142.5 -96 t-176 -34.5q-84 0 -159 24v-344h-287q6 80 6 162q0 123 -8 244t-8 244zM1950 655q0 -66 40.5 -113.5t108.5 -47.5q72 0 115 50t43 118q0 66 -41 105.5t-107 39.5q-68 0 -113.5 -41t-45.5 -111z" />
<glyph unicode="c" horiz-adv-x="2543" d="M4 340v772h367q10 -2 11 3t1 11v279v37h254v-1102h-633zM270 567h113v318h-113v-318zM764 340v772h254v-772h-254zM764 1214v228h254v-228h-254zM1145 10v228h354h25v75q0 4 1 8.5t-1 6.5q0 2 -5.5 0t-7.5 0t0 5t0 7h-24h-342v772h633v-1102h-633zM1399 580q2 0 5 1t7 -1 q2 0 0 -5.5t0 -7.5t6 0t6 0h101v318h-125v-305zM1905 10v228h368v90q2 12 -14 12h-25h-329v772h635v-1102h-635zM2159 567h114v318h-114v-318z" />
<glyph unicode="d" horiz-adv-x="2449" d="M-2 424q4 82 27.5 169t79 170t146.5 157.5t230 132.5l-145 286l352 45l119 -241q4 0 7 1t13 3q227 39 419 40h16q182 1 332 -21q156 -22 280.5 -65.5t220.5 -94.5q223 -119 354 -295l-1126 -320l-260 527q81 13 156 13h28q88 -3 168 -20l107 -200l383 100 q-139 90 -301 143q-70 23 -152 40.5t-173 23.5q-39 3 -79 3q-54 0 -110 -5q-98 -8 -203 -39l309 -625l-1126 -325q-73 186 -73 362q0 18 1 35zM358 545q-3 -21 -3 -41q0 -54 20 -105l373 105l-166 340q-121 -78 -167 -156t-57 -143z" />
<glyph unicode="e" horiz-adv-x="2473" d="M12 10v1522h736q279 0 397 -162q70 -94 69 -227q0 -143 -75 -225q-18 -29 -47 -48.5t-64 -38.5q53 -23 98 -56.5t74 -80.5t45.5 -103t16.5 -122q0 -129 -68 -242q-23 -37 -50.5 -65.5t-60.5 -50.5q-35 -29 -78.5 -48.5t-91.5 -35.5q-49 -8 -102 -12.5t-115 -4.5h-684z M360 276h326q100 0 156 27q98 48 98 191q0 117 -98 161q-25 16 -64 20.5t-86 4.5h-332v-404zM360 936h326q51 0 89 10.5t73 26.5q61 37 61 131q0 109 -82 141q-37 10 -79.5 17.5t-100.5 7.5h-287v-334zM1380 594q0 278 152 434q143 150 389 150q72 0 135.5 -13.5 t120.5 -36.5q53 -29 101.5 -65.5t84.5 -95.5q33 -51 54.5 -106.5t31.5 -121.5q6 -41 10.5 -92t4.5 -123h-797q0 -84 29.5 -140t83.5 -87q31 -23 70.5 -34t84.5 -11q49 0 88 14.5t72 36.5q37 25 57 74h291q-12 -98 -104 -197q-72 -80 -176.5 -117.5t-233.5 -37.5 q-111 0 -207 29.5t-180 97.5q-86 68 -124 178t-38 264zM1612 1315v155h606v-155h-606zM1673 711h490q-4 57 -22.5 99t-49.5 77q-74 55 -170 55q-57 0 -99 -13.5t-73 -47.5q-29 -35 -47.5 -76t-28.5 -94z" />
<glyph unicode="f" horiz-adv-x="2574" d="M0 305v1057h578v-176h-369q-14 -20 -16.5 -44t-2.5 -46q0 -41 4 -83q1 -20 1 -39q0 -22 -2 -44h385v-176h-369q-12 -16 -15.5 -35t-3.5 -37v-297v-33.5t5 -44.5l-58 -6q-35 0 -69 4q-16 2 -33 2t-35 -2zM137 301l58 6q-12 -6 -25.5 -6h-32.5zM688 713q0 96 36 173 t97.5 130t142 81.5t173.5 28.5q29 0 56.5 -10t55.5 -10q31 -23 55.5 -49.5t57.5 -46.5l18 26q0 14 -2 27.5t-2 26.5l2 16h160v-801h-160v80h-10q-16 2 -23.5 -5t-13.5 -16.5t-13 -17.5t-20 -10v-6q2 -14 -8 -18.5t-22.5 -5.5t-22.5 -3t-12 -14q-23 -4 -47.5 -6t-48.5 -2 q-100 0 -183.5 28.5t-141.5 82.5t-91 135t-33 186zM864 717q0 -53 19.5 -102.5t53.5 -86t81 -58t104 -21.5q37 0 68 15t58.5 39.5t51 52t46.5 52.5v176q0 10 -21.5 37t-49.5 54.5t-53.5 49t-35.5 21.5h-129q-4 0 -10.5 -5t-4.5 -11h-49q-10 -27 -35.5 -38t-44.5 -28 q-4 -20 -11 -37.5t-16 -35t-15.5 -36t-6.5 -38.5zM1714 305v1057h160v-305l18 -15q18 4 32.5 19.5t29.5 28.5h6q35 0 64.5 16t64.5 16q82 0 167 -24.5t153.5 -72.5t111.5 -120t43 -168t-29.5 -181t-86 -148.5t-136.5 -99.5t-180 -36q-53 0 -107.5 18.5t-97.5 47.5 q-10 6 -17 18.5t-20 12.5q-16 0 -17 -18.5t1 -28.5l-14 -23q-6 4 -27 5t-43.5 1h-45h-30.5zM1890 608q45 -74 101.5 -118t148.5 -44q55 0 99.5 24t75 62.5t49 88t24.5 100.5q-16 2 -16 24.5v32.5v6q-23 35 -46.5 67t-50.5 62q-18 2 -36.5 8.5t-26.5 24.5h-146q-4 0 -11 -5 t-5 -11q-31 -4 -53.5 -18.5t-40 -36t-32.5 -45t-34 -46.5v-176z" />
<glyph unicode="g" horiz-adv-x="2342" d="M227 328q6 102 61.5 169.5t141.5 108.5t195.5 57.5t226.5 18.5q4 23 -4 37t-21.5 26.5t-27 23.5t-17.5 26q-6 25 -1 54.5t1 63.5h-30q-288 0 -377 187q-35 70 -40 146q-1 17 -1 35q0 57 12 109q16 70 50 128.5t79 95.5q66 53 163 88t204 43q65 4 132 4q59 0 120 -3 q102 -5 201 -5h57q-8 -31 -37 -41t-63.5 -14.5t-69.5 -8.5t-58 -20q35 -25 61.5 -43.5t45.5 -48.5q31 -53 37 -126q3 -37 3 -74t-3 -75q-4 -61 -30 -113.5t-56 -86.5q-18 -20 -48 -42t-57.5 -45.5t-47 -50t-19.5 -55.5q2 -33 25.5 -57.5t45.5 -44.5q43 -37 92.5 -76 t89.5 -85t66.5 -104.5t26.5 -136.5q0 -125 -48 -213t-131 -143t-195 -80t-234 -25q-96 0 -192.5 20.5t-171.5 67t-119 122.5q-39 66 -39 160q0 13 1 26zM434 339q-1 -6 -1 -13q0 -25 5 -48q6 -30 20.5 -56.5t30.5 -47.5q63 -74 162 -100q67 -19 135 -19q32 0 64 5 q100 12 186 58t127 115q27 48 27 102q0 17 -3 35q-11 74 -48 119q-47 53 -141 90q-78 30 -165 30q-19 0 -38 -1q-123 -10 -216 -63t-130 -139q-14 -35 -15 -67zM560 1340q7 -73 36 -134q14 -31 34.5 -63.5t47.5 -59t58.5 -46t68.5 -25.5q18 -3 35 -3q47 0 83 21 q48 29 76.5 79t36.5 113q4 29 4 56q0 35 -6 68q-6 41 -22.5 82.5t-39 79.5t-50 68t-56.5 48q-27 16 -64 24q-22 5 -44 5q-15 0 -29 -2q-68 -10 -107.5 -58.5t-53.5 -114.5q-10 -44 -10 -91q0 -23 2 -47zM1495 1286v103h352q1 45 1 90t-1 90q-1 23 -1 45q0 66 5 131h99v-352 q64 -5 132 -5q22 0 45 1q45 1 90 1t89 -1v-103h-356v-352h-103v350q-56 3 -115 3q-29 0 -59 -1q-45 -1 -89.5 -1t-88.5 1z" />
<glyph unicode="h" horiz-adv-x="2383" d="M8 643q0 129 35 247t105.5 209t175 145t245.5 54q51 0 99.5 -2t91.5 -16t84 -46t78 -91v567h401v-1708h-401v127q-37 -51 -76 -82t-82 -47t-89 -21.5t-100 -5.5q-145 0 -251.5 55.5t-176 147.5t-104.5 213t-35 254zM360 618q0 -74 17.5 -147.5t55.5 -130.5t96.5 -93 t140.5 -36q86 0 144 35t93 92t49.5 131t14.5 154q0 78 -15.5 150.5t-50.5 128.5t-92 90t-143 34t-145.5 -34t-95.5 -91t-52.5 -130t-16.5 -153zM1524 1366l49 182l254 -104v266h201v-266l284 104l68 -182l-277 -94l176 -232l-155 -116l-176 243l-166 -243l-158 116l174 232z " />
<glyph unicode="i" horiz-adv-x="2148" d="M-11 813v25q0 25 1 49q6 104 34.5 202.5t70.5 186.5t96.5 162.5t113.5 134.5q129 129 301 210t389 101h131q229 -23 397.5 -105.5t299.5 -213.5q123 -123 209 -298t100 -405q2 -24 2 -46t-2 -42q-12 -227 -95 -404t-214 -309q-90 -88 -205 -159.5t-250 -112.5 q-134 -41 -288 -45h-26q-142 0 -292 41q6 27 22.5 54.5t32.5 58.5q41 86 65.5 192.5t55.5 208.5q6 12 12 0l8 -16q39 -41 101.5 -72t142.5 -33q76 0 141.5 19.5t122 52.5t100.5 77t76 91q70 102 108 240q29 105 29 227q0 38 -3 78q-10 141 -79 243.5t-161 173.5 q-98 76 -224 114q-96 29 -209 29q-36 0 -73 -3q-158 -12 -269.5 -59.5t-199.5 -129.5q-49 -45 -92 -98t-73 -117q-32 -65 -48 -141q-12 -56 -11 -120q0 -23 1 -48q4 -47 19.5 -112.5t52.5 -123.5q16 -23 32.5 -40t42.5 -39q16 -10 42 -32t55 -14q18 6 22 21.5t10 42.5 q6 18 14.5 37.5t8.5 32.5q-2 16 -15.5 29.5t-23.5 29.5q-41 57 -49 131q-3 28 -3 56q0 46 8 92q13 74 44 140t68 109q70 80 173 128t232 48q96 0 175 -26.5t136.5 -73.5t92 -112.5t41.5 -143.5q4 -40 4 -78q0 -35 -4 -69q-8 -70 -21 -129q-12 -49 -31.5 -100.5t-47 -96.5 t-65.5 -81t-83 -54q-48 -18 -90 -18q-1 1 -2 1q-43 0 -78 15.5t-57.5 42t-30.5 55.5q-8 27 -6 56.5t8 59.5t16 58.5t19 57.5q16 53 33.5 108t21.5 109v12q0 39 -12 74q-14 41 -40 66.5t-66 32.5q-10 2 -21 2q-31 0 -68 -15q-43 -16 -73.5 -54t-47.5 -88q-16 -50 -19 -110 q-1 -10 0 -21q0 -49 11 -96q4 -16 12 -33.5t8 -34.5q2 -16 -6 -40.5t-14 -47.5q-16 -61 -31.5 -128.5t-32.5 -131.5q-14 -59 -27 -114.5t-23 -111.5q-11 -55 -17 -117q-5 -46 -5 -99q0 -17 1 -35q-131 61 -240.5 146.5t-191.5 196t-135.5 249.5t-73.5 313q0 37 -1 74z" />
<glyph unicode="j" horiz-adv-x="2543" d="M8 827q0 137 39 248q41 117 115 201q80 86 186 133q111 49 248 49q115 0 207 -33q47 -18 91 -40.5t85 -51.5q78 -53 151 -131q35 -37 70 -76t70 -79q33 41 66.5 78.5t68.5 76.5q74 78 151 131q41 29 85.5 51.5t91.5 40.5q90 33 202 33q141 0 248 -47q113 -49 187 -133 q76 -84 116 -197q41 -117 41 -247q0 -133 -41 -252q-39 -115 -116 -205q-76 -86 -189 -137q-111 -49 -248 -50q-109 0 -200 33q-92 33 -172 86q-84 51 -154 123q-37 35 -70.5 72t-66.5 76q-74 -78 -142 -148q-35 -35 -70.5 -65.5t-74.5 -57.5q-82 -53 -170 -86 q-86 -33 -205 -33q-139 0 -250 50q-55 27 -102 59.5t-88 75.5q-80 86 -119 200q-23 59 -32 122t-9 130zM334 819q0 -121 72 -203q71 -77 197 -77h3q63 0 129 24q35 14 65.5 29.5t59.5 36.5q29 20 56.5 41.5t54.5 48.5q25 25 48 49.5t44 48.5q-41 43 -96 96q-53 53 -115 99 q-63 47 -127 73q-66 31 -129 31q-123 0 -193 -92q-70 -94 -69 -205zM1475 817q45 -53 96 -102q55 -53 110 -90t123 -64q31 -12 66 -17t69 -5q127 0 197 82q68 82 68 202q0 121 -74 207t-201 86q-70 0 -133 -31q-66 -29 -119 -73q-29 -23 -55.5 -46.5t-52.5 -52.5 q-27 -27 -49.5 -50t-44.5 -46z" />
<glyph unicode="k" horiz-adv-x="2613" d="M4 594h246q10 -86 63 -133q51 -49 138 -49q49 0 88 20q35 18 65 51q14 16 23.5 35t17.5 39q14 41 14 88t-12 90q-16 41 -43 72t-65 49q-37 18 -88 18q-66 0 -109 -24q-39 -23 -78 -74h-223l121 672h680v-203h-504l-47 -276l2 -2q55 51 108 71q55 20 131 21q92 0 160 -33 q70 -35 117 -88q18 -23 32.5 -45.5t26.5 -48.5q27 74 78 135q29 29 60.5 53.5t70.5 40.5q39 18 83 26.5t91 8.5q80 0 146 -25q63 -20 123 -63q55 -39 106 -92q25 -25 49.5 -52.5t48.5 -56.5q45 55 97 109q51 53 106 92q59 43 123 63q63 25 143 25q100 0 174 -33 q78 -35 130 -94q53 -57 81 -137q31 -80 31 -174q0 -96 -31 -176q-29 -84 -81 -144q-27 -33 -59 -56.5t-73 -41.5q-80 -35 -174 -35q-78 0 -141 25q-63 20 -121 59q-29 18 -55.5 39.5t-52.5 46.5q-25 27 -49.5 51.5t-47.5 50.5q-25 -27 -50 -52t-48 -50q-47 -47 -102 -86 q-59 -39 -119 -59q-66 -25 -143 -25q-96 0 -177 35q-80 39 -133 94t-80 129q0 -2 -1 -2t-1 -2q-37 -82 -98 -139q-61 -59 -143 -92q-80 -31 -174 -31q-45 2 -87 7t-83 17q-76 20 -144 72q-61 49 -98 121q-39 70 -39 168zM1067 659q0 -82 51 -143q51 -55 142 -55q43 0 90 18 q23 10 44 21.5t44 25.5q20 14 39.5 29.5t38.5 32.5q16 18 32.5 35.5t30.5 33.5q-29 31 -68 68q-35 37 -79 70q-23 16 -44.5 28.5t-44.5 22.5q-43 20 -92 20q-84 0 -133 -63q-51 -63 -51 -144zM1870 657q35 -41 67 -71q18 -16 37 -32.5t41 -31.5q39 -27 84 -43q45 -18 96 -18 q88 0 138 59q49 55 49 142q0 82 -53 145q-51 59 -142 59q-49 0 -92 -20q-23 -10 -43 -22.5t-41 -28.5q-20 -16 -39.5 -33t-36.5 -37l-34.5 -34.5t-30.5 -33.5z" />
<glyph unicode="l" horiz-adv-x="2457" d="M10 481q-1 12 -1 25q0 12 1 26q2 26 4 56q4 68 6.5 130t6.5 134q2 18 2 32.5t14 18.5q12 2 17.5 -7t7.5 -23.5t2 -31v-26.5q4 -68 7 -135.5t7 -134.5q2 -28 2 -55q0 -42 -4 -80q-6 -64 -12 -134q-2 -20 -3 -46.5t-20 -26.5q-16 0 -18 19.5t-2 37.5q-4 55 -9.5 112.5 t-7.5 108.5zM10 481q-1 12 -1 25q0 12 1 26q2 26 4 56q4 68 6.5 130t6.5 134q2 18 2 32.5t14 18.5q12 2 17.5 -7t7.5 -23.5t2 -31v-26.5q4 -68 7 -135.5t7 -134.5q2 -28 2 -55q0 -42 -4 -80q-6 -64 -12 -134q-2 -20 -3 -46.5t-20 -26.5q-16 0 -18 19.5t-2 37.5 q-4 55 -9.5 112.5t-7.5 108.5zM215 535q0 29 2 59.5t4 64.5q4 80 7 154t8 158q2 23 2 39t16 20q14 4 20.5 -7t8.5 -27.5t2 -36v-31.5q6 -80 10 -160l8 -160q1 -29 1 -58q0 -50 -4 -98q-7 -76 -15 -157v-26.5t-2 -28t-7.5 -22.5t-15.5 -9q-20 -2 -22 21.5t-5 45.5 q-4 66 -10 132.5t-8 126.5zM215 535q0 29 2 59.5t4 64.5q4 80 7 154t8 158q2 23 2 39t16 20q14 4 20.5 -7t8.5 -27.5t2 -36v-31.5q6 -80 10 -160l8 -160q1 -29 1 -58q0 -50 -4 -98q-7 -76 -15 -157v-26.5t-2 -28t-7.5 -22.5t-15.5 -9q-20 -2 -22 21.5t-5 45.5 q-4 66 -10 132.5t-8 126.5zM428 551q2 129 6 253t8 253q2 12 2 29.5v33.5q0 29 1 48.5t24 23.5q2 2 11 1t16 -11q4 -8 4 -25.5v-34.5q6 -141 12 -284.5t8 -282.5q0 -15 1 -30q0 -45 -5 -91q-6 -62 -12 -125v-29.5t-2 -33t-8.5 -26.5t-20.5 -11q-12 0 -18 9t-9.5 23.5 t-3.5 32v33.5q-4 66 -10 123q-4 43 -4 89v32zM428 551q2 129 6 253t8 253q2 12 2 29.5v33.5q0 29 1 48.5t24 23.5q2 2 11 1t16 -11q4 -8 4 -25.5v-34.5q6 -141 12 -284.5t8 -282.5q0 -15 1 -30q0 -45 -5 -91q-6 -62 -12 -125v-29.5t-2 -33t-8.5 -26.5t-20.5 -11q-12 0 -18 9 t-9.5 23.5t-3.5 32v33.5q-4 66 -10 123q-4 43 -4 89v32zM643 551q0 92 2 193.5t6 189.5q2 43 3 93t3 97q0 29 1.5 50.5t21.5 27.5q16 4 25.5 -2t12.5 -19.5t4 -29.5t1 -35q4 -211 12 -416q2 -43 4 -84q1 -20 1 -40.5t-1 -40.5q-2 -66 -7 -129.5t-9 -133.5q0 -25 -5 -45 t-30 -18q-29 2 -30 30.5t-3 65.5q-4 61 -9 124q-4 45 -4 88q0 17 1 34zM643 551q0 92 2 193.5t6 189.5q2 43 3 93t3 97q0 29 1.5 50.5t21.5 27.5q16 4 25.5 -2t12.5 -19.5t4 -29.5t1 -35q4 -211 12 -416q2 -43 4 -84q1 -20 1 -40.5t-1 -40.5q-2 -66 -7 -129.5t-9 -133.5 q0 -25 -5 -45t-30 -18q-29 2 -30 30.5t-3 65.5q-4 61 -9 124q-4 45 -4 88q0 17 1 34zM860 543q0 37 1 82t2 94l2 98t1 94q0 72 2 138.5t4 138.5q2 39 2 73.5t33 38.5q6 0 17.5 -3t17.5 -13q6 -8 7 -25.5t1 -38t-1 -41t-1 -32.5q2 -104 3 -212t5 -210q3 -68 3 -137 q0 -36 -1 -70q-2 -104 -8 -209q0 -18 -1 -37.5t-4 -35t-12 -23.5t-26 -6q-23 4 -28 19.5t-7 41.5q-4 66 -8 137.5t-4 137.5zM860 543q0 37 1 82t2 94l2 98t1 94q0 72 2 138.5t4 138.5q2 39 2 73.5t33 38.5q6 0 17.5 -3t17.5 -13q6 -8 7 -25.5t1 -38t-1 -41t-1 -32.5 q2 -104 3 -212t5 -210q3 -68 3 -137q0 -36 -1 -70q-2 -104 -8 -209q0 -18 -1 -37.5t-4 -35t-12 -23.5t-26 -6q-23 4 -28 19.5t-7 41.5q-4 66 -8 137.5t-4 137.5zM1080 276v24v24q1 26 1 49v944v38.5t4 30.5q8 20 42 30.5t59 15.5q57 16 127 20q16 1 31 1t30 -1 q133 -8 231.5 -56t170.5 -120t123 -167t63 -224q41 16 90 23q26 4 52 4q22 0 44 -3q47 -6 86 -23.5t68 -37.5q63 -43 103 -111.5t46 -165.5q1 -4 1 -8l-1 -16v-2q-8 -100 -48 -166t-99 -107q-66 -49 -150 -63q-37 -5 -81 -5h-15q-53 1 -110 1q-182 0 -366.5 1t-371.5 1 q-25 0 -55.5 -2t-46.5 4q-14 6 -20.5 24.5t-7.5 42.5zM1080 276v24v24q1 26 1 49v944v38.5t4 30.5q8 20 42 30.5t59 15.5q57 16 127 20q16 1 31 1t30 -1q133 -8 231.5 -56t170.5 -120t123 -167t63 -224q41 16 90 23q26 4 52 4q22 0 44 -3q47 -6 86 -23.5t68 -37.5 q63 -43 103 -111.5t46 -165.5q1 -4 1 -8l-1 -16v-2q-8 -100 -48 -166t-99 -107q-66 -49 -150 -63q-37 -5 -81 -5h-15q-53 1 -110 1q-182 0 -366.5 1t-371.5 1q-25 0 -55.5 -2t-46.5 4q-14 6 -20.5 24.5t-7.5 42.5z" />
<glyph unicode="m" horiz-adv-x="2594" d="M-2 295v1012h260v-1012h-260zM371 295v1012h340q16 -111 32.5 -220.5t32.5 -220.5h6q16 111 29.5 220.5t30.5 222.5h342v-1012h-228v625h-10q-23 -156 -42 -311.5t-42 -313.5h-166q-23 154 -45 308.5t-45 309.5h-8v-620h-227zM1296 293v1012q9 5 16 5h2q8 -1 19 -1 q78 0 154 1h51q51 0 102 -1q37 -2 75 -7.5t73 -21.5q96 -41 110 -143q4 -33 5.5 -64t1.5 -61v-514q0 -35 -11 -80q-10 -49 -47 -80t-88 -39q-59 -6 -119 -6h-344zM1561 465q23 4 43 6t28 31q4 12 6 24.5t2 26.5v518q0 66 -57 66q-10 0 -22 -2v-670zM2001 295v1012h254v-224 q10 -4 15 1.5t9 9.5q47 41 101 46q12 1 24 1q42 0 84 -13q94 -31 99 -141q1 -86 1 -171v-84q-1 -126 -1 -255q0 -20 -3.5 -39.5t-7.5 -40.5q-6 -43 -50 -77.5t-93 -38.5q-19 -1 -35 -1h-14q-20 1 -40 8t-40 21.5t-47 38.5q-14 -10 -13 -26.5t-12 -26.5h-231zM2255 473 q0 -27 16 -43q12 -2 23.5 -2t21.5 4q14 20 15 43v463q-1 35 -13 44q-8 6 -28 6q-9 0 -19 -1q-16 -10 -16 -37q2 -120 2 -239.5t-2 -237.5z" />
<glyph unicode="n" horiz-adv-x="2322" d="M10 842q0 160 41 307t117 276t180.5 234.5t233.5 181.5t276.5 117t306.5 41q160 0 307.5 -42t276.5 -117t233.5 -180.5t180 -233.5t116.5 -275t41 -307q0 -240 -91 -451t-247.5 -367.5t-366.5 -247.5t-450 -91q-160 0 -307 41t-276 116.5t-233.5 181t-180.5 233.5 t-117 275.5t-41 307.5zM106 842q0 -217 85 -408.5t229.5 -336t336 -228.5t408.5 -84t409.5 84t337 228.5t227.5 337t83 409.5t-84 408.5t-228.5 335t-336 227t-408.5 83.5t-409.5 -83.5t-337 -228t-228.5 -336t-84 -408.5zM489 288q-1 8 -1 15q0 43 20 82q29 55 75 86 t103 45q31 8 61 8q38 0 76 -12q4 -2 9.5 -2t13.5 -4v33v831q0 14 4 22.5t20 12.5q70 18 137.5 39.5t137.5 38.5q61 16 123.5 25.5t124.5 19.5q61 8 122.5 12t120.5 8q20 2 38.5 3t41.5 3v-32v-507t2 -507q0 -66 -37 -115q-80 -102 -204 -108h-16q-36 0 -70 7q-41 9 -80 38 q-55 40 -67 106q-3 16 -2 32q0 47 26 89q68 102 192 119q25 4 39 5t27.5 0t29 -5t41.5 -12v487q-162 -10 -319.5 -39t-312.5 -76v-30v-660q0 -68 -37 -113q-41 -49 -92.5 -76.5t-116.5 -29.5h-12q-47 -1 -89 13q-48 16 -86 57q-39 39 -43 91z" />
<glyph unicode="p" horiz-adv-x="1806" d="M92 104l340 1555h762q86 0 171 -32t147.5 -97.5t89.5 -164.5q14 -49 14 -108t-14 -129q-25 -119 -84.5 -214t-142.5 -160.5t-186.5 -101.5t-217.5 -36h-318l-112 -512h-449zM268 -84l21 80h375l110 514h320q115 0 218 36t187 101.5t142.5 160.5t82.5 214q15 69 15 128 q0 19 -1 37q-7 73 -36 132q55 -63 80 -157q12 -44 12 -95q0 -60 -16 -129q-27 -121 -86.5 -216t-142.5 -160.5t-186 -100.5t-216 -35h-324l-106 -510h-449zM715 915h211q4 0 5 -1h1t4 1q41 2 81 19.5t72.5 46.5t57 66.5t37.5 80.5q0 14 6 19q2 13 2 26q0 10 -1 19 q-3 22 -7 43q-16 45 -55 75.5t-97 30.5h-221z" />
<glyph unicode="q" horiz-adv-x="1949" d="M2 29v1603q33 117 152 154h1511q117 -35 154 -154v-92q-125 72 -272.5 117t-332.5 45q-195 0 -360.5 -61.5t-284 -173t-181.5 -270.5q-52 -133 -52 -290q0 -30 2 -61q4 -63 15.5 -114.5t32 -95.5t48 -84t64.5 -81q66 47 122 100.5t121 98.5q-55 49 -75 124 q-13 53 -13 108q0 24 3 49q8 81 38.5 156t77.5 122q70 72 170 112.5t212 50.5q41 4 81 4q71 0 143 -12q111 -18 204 -66t156.5 -124t80.5 -180v-168q-16 -84 -68.5 -144.5t-127.5 -95.5t-165 -41q-16 -1 -33 -1q-74 0 -149 22v573q-53 10 -115 10q-22 0 -45 -1 q-49 -3 -95 -3q-37 0 -73 2q-1 -55 -1 -138v-90q1 -146 1 -314q0 -57 5 -141q4 -69 4 -137v-27q-1 -80 -12 -142.5t-42 -79.5q-31 -16 -59.5 -13t-55 14.5t-52 26.5t-48.5 26q6 -29 8 -64q1 -23 1 -47v-23l-2 -72v-24q0 -23 1 -45h-542q-117 35 -152 152zM1184 -123 q35 33 54 82t28.5 109.5t10.5 127.5v44q0 46 -1 94q59 -27 135 -34q38 -4 76 -4t75 4q76 7 145 28.5t112 52.5v-358q-23 -53 -59 -91t-95 -55h-481z" />
<glyph unicode="r" horiz-adv-x="1740" d="M0 1032v11q0 38 12 65q10 23 37 44.5t60 25.5q9 1 19 1q34 1 64 -17q38 -22 56 -64q8 -24 8 -54v-12q-2 -37 -2 -90v-324v-82.5t-10 -64.5h-6q-4 -4 4 -4q-16 -33 -48 -49.5t-67 -16.5t-67.5 17.5t-47.5 52.5q-10 23 -10 63.5v88.5v323q0 41 -2 86zM301 398q4 58 4 114 v637q0 8 2 10h1127v-647q0 -56 3 -114q1 -14 1 -26q0 -42 -8 -73q-16 -59 -75 -83q-41 -16 -96 -16q-23 0 -49 3q-4 -39 -4 -81v-85q0 -41 3 -83q1 -8 1 -16q0 -32 -10 -59q-8 -23 -29.5 -46t-48.5 -32q-22 -7 -43 -7q-29 0 -56 14q-46 22 -62 67q-10 27 -10 61q1 7 1 15 q2 43 2 86v166h-168q-4 -39 -4 -81v-85q0 -74 -3 -130.5t-46 -88.5q-27 -18 -57 -20q-6 -1 -13 -1q-23 -1 -45 7q-28 10 -50.5 29.5t-30.5 45.5q-10 31 -10 64q1 7 1 14q2 41 2 80v166q-27 -3 -52 -3q-53 0 -94 14q-60 22 -77 85q-7 29 -7 67q0 14 1 32zM301 1208 q2 84 25.5 153t62.5 124t91 97t112 75q-16 33 -39 67.5t-39 69.5q-6 10 -12 23.5t8 23.5q5 2 9 2q9 0 13 -10q6 -14 13 -25q16 -31 36.5 -67.5t39.5 -67.5q47 25 113.5 37t135 12t133 -13t109.5 -40q20 31 41 68t41 71q4 10 9 24q4 10 15 10q3 0 7 -1q20 -6 11 -21.5 t-15 -25.5q-6 -12 -13.5 -25.5t-13.5 -23.5q-6 -6 -6 -8q-10 -16 -18.5 -39t-22.5 -39q57 -35 108.5 -77t90 -95t62.5 -122t28 -157h-1135zM563 1442q10 -20 30.5 -28.5t41 -0.5t22.5 39q2 20 -8 32q-11 11 -25 15q-10 3 -19 3q-5 0 -9 -1q-14 -2 -23 -10q-13 -19 -13 -35 q0 -7 3 -14zM1081 1450q2 -16 14 -29.5t35 -13.5q20 0 33 17.5t12 36t-15 32.5q-9 10 -25 10q-7 0 -15 -2q-23 -3 -32 -19q-7 -13 -7 -26v-6zM1481 1025v14q0 34 8 63q10 23 37.5 47.5t64.5 28.5q10 1 19 1q31 -1 61 -15q39 -20 55 -56q8 -23 11.5 -63.5t3.5 -88t-2 -92.5 t-2 -76q0 -29 2 -72.5t2 -90.5t-3 -89t-12 -65q-12 -29 -43.5 -48.5t-48.5 -21.5q-15 -3 -29 -3q-32 0 -58 16q-38 22 -54 57q-10 25 -10 61.5v90.5v323q0 37 -2 79z" />
<glyph unicode="s" horiz-adv-x="2166" d="M0 608v297q0 16 15.5 31.5t31.5 15.5h522l-225 -391h-297q-16 0 -31.5 12.5t-15.5 34.5zM170 -90l25 199q0 16 15 23t28 -1l131 -74q18 -16 18 -31q0 -12 -12 -24l-168 -108q-16 -16 -26.5 -8t-10.5 24zM258 216q-2 7 -1 14q0 12 5 24l596 1028q8 18 27.5 23.5t40.5 -2.5 l127 -74q20 -12 24 -31.5t-4 -38.5l-596 -1028q-8 -16 -27.5 -22.5t-39.5 2.5l-127 75q-21 10 -25 30zM864 561l226 391h129l184 -391h-539zM1015 1760v11q0 27 13 33q2 1 5 1q16 0 47 -42q36 -49 82 -125.5t97.5 -167t98.5 -163.5q31 -47 69.5 -117t81.5 -147.5t85 -156.5 t77 -146.5t59.5 -116t32.5 -62.5q14 -20 12.5 -39.5t-14 -35t-29 -26.5t-30.5 -16q-29 -10 -47.5 -17t-55.5 11q-14 8 -42.5 57.5t-64.5 122t-75 160.5t-75.5 171t-67.5 152.5t-47 108.5q-18 39 -44 95.5t-53.5 120t-53 128t-42 117.5t-19.5 89zM1655 952h461q23 0 35 -15 t12 -32v-297q0 -47 -47 -47h-261q-4 8 -6 20.5t-10 20.5q-4 10 -16.5 32.5t-28.5 59.5q-29 47 -63.5 116t-75.5 142zM1681 330q5 22 29 32l74 39q9 5 19 5q9 0 17 -4q18 -9 29 -25l62 -117q10 -23 5 -44t-24 -36l-53 -30q-18 -8 -38.5 -5.5t-37.5 25.5l-71 121 q-12 14 -12 29q0 5 1 10zM1833 35q-2 11 -2 21t2 18q4 16 14.5 27.5t16.5 17.5q42 23 71 23h1q30 0 51.5 -14.5t34 -41.5t18.5 -57q9 -46 9 -107q0 -35 -3 -74q-4 18 -26.5 30.5t-52.5 26t-60.5 32t-51.5 49.5q-18 27 -22 49z" />
<glyph unicode="t" horiz-adv-x="1169" d="M12 606v901q0 78 70 119q57 35 121 35q23 0 47 -4t49 -17q90 -39 90 -133v-268h604q98 -8 127 -61q39 -72 39 -142q0 -66 -35 -116q-43 -63 -100 -64h-633v-49q0 -109 6 -181.5t23 -111.5q16 -43 61 -70.5t121 -27.5l420 2q119 -35 133 -142q6 -41 6 -71q0 -33 -4 -58.5 t-14 -48.5q-49 -98 -139 -98h-478q-131 0 -228 44t-165 130q-53 70 -87 177.5t-34 254.5z" />
<glyph unicode="u" horiz-adv-x="835" d="M-106 975v254q53 18 105 42.5t93 55.5q37 31 66.5 71t54.5 87q43 82 66 223h247v-412h418v-321h-418v-459q0 -78 2 -123t13 -69q10 -18 29.5 -40t41.5 -38q29 -18 62 -25.5t69 -7.5q72 0 138.5 19.5t134.5 66.5v-285q-59 -25 -109.5 -44t-97.5 -31t-98.5 -16.5 t-104.5 -4.5q-33 0 -57.5 2t-47 6t-43 10.5t-44.5 12.5q-49 16 -88 39.5t-74 52.5q-33 29 -56.5 58.5t-31.5 64.5q-16 29 -22.5 76t-6.5 108v627h-241z" />
<glyph unicode="v" horiz-adv-x="2252" d="M-6 -23q0 162 1 323t1 323q154 -29 300 -75t300 -75q16 12 18 40t2 46v54.5t-7 28.5t-23.5 10t-48.5 1q-8 0 -17.5 4.5t-5.5 14.5q-6 0 -12 -1t-13 -1q-25 0 -45 11t-47 7q-10 18 -29.5 25.5t-37.5 9.5q-113 86 -190 201.5t-77 263.5q0 78 13.5 154.5t52.5 146.5l35 16 q0 6 -1 11.5t-1 11.5q0 25 41 58.5t95 66.5t106.5 57.5t74.5 28.5q27 4 51.5 5t51.5 1q49 0 100 -3t98 -20q25 -10 48.5 -20t50.5 -14q14 -18 33.5 -33t38 -30t34.5 -31.5t29 -39.5q20 -12 34.5 -30.5l29 -37t30.5 -36t39 -29.5q39 18 68.5 46t55 61t51.5 65.5t56 61.5h13 q12 0 22 6t19.5 12t20.5 11.5t26 3.5q2 14 13 19t25.5 7t28 6t17.5 19h282q45 -23 90 -46.5t95 -37.5q57 -59 107 -126t91 -140v-37q0 -10 3 -18.5t14 -12.5q2 -20 3 -40.5t1 -43.5q0 -195 -80 -329t-262 -212q-23 -10 -64 -24.5t-63 -16.5q-89 -8 -178 -8q-46 0 -90 2 q-134 6 -267 6l-10 -12q2 -25 16.5 -44t12.5 -44q12 -4 16 -17.5t6 -26.5t6 -24.5t21 -13.5q0 -18 15 -65.5t38 -111t49.5 -133t52 -132t47 -110.5t31.5 -64q-25 -14 -52.5 -17.5t-55.5 -3.5q-207 0 -412 2t-414 2v250q-74 -23 -150.5 -38t-148.5 -46q-43 0 -83 -16.5 t-83 -16.5q-14 -12 -31.5 -17t-36 -8t-35.5 -8.5t-30 -17.5q-14 10 -17 24.5t-3 30.5zM512 1196q0 -41 18 -74q33 -16 70 -16q25 0 50.5 8t45.5 25q10 31 11 55q0 43 -33 77t-78 34q-41 0 -62.5 -37t-21.5 -72zM1610 1188q0 -8 1 -16.5t1 -16.5q37 -43 92 -43t92 43 q0 8 1 14.5t1 14.5q0 29 -11 54.5t-24 49.5q-10 2 -20 2h-21q-51 0 -81.5 -23.5t-30.5 -78.5z" />
<glyph unicode="y" horiz-adv-x="1609" d="M4 2v328h109q37 0 55 -11q20 -12 33 -32q14 -25 16 -49q2 -16 3 -33t1 -33q0 -45 -6 -76q-2 -31 -16 -53q-16 -20 -35 -31q-25 -10 -55 -10h-105zM12 1724q0 12 1 23.5t1 21.5q2 18 11 33q4 10 20 23q14 8 39 8t35 -8q12 -6 18 -19q8 -12 8 -22q2 -10 2 -25h-41 q0 23 -6 33t-20 10q-4 0 -12 -4q-4 -2 -9 -14q-2 -4 -2 -10.5t-2 -14.5v-37v-39q4 -16 6 -22q4 -8 9 -10q4 -2 12 -2q6 0 10 2q4 0 8 8q4 4 4 14q2 8 2 29h44q0 -10 -1.5 -17.5t-3.5 -15.5q0 -10 -8 -27q-4 -6 -9 -10t-11 -8q-12 -6 -33 -6q-12 0 -21.5 2t-17.5 6 q-14 6 -20 23q-8 14 -11 32q0 10 -1 21.5t-1 21.5zM16 897q0 35 7 66q4 16 9 30.5t13 28.5q16 31 37 53q18 25 51 53l43 41q18 16 29 29q6 8 9 14.5t7 12.5q8 20 8 30q2 8 2 16.5v18.5q0 68 -51 68q-18 0 -33 -10q-10 -6 -18 -21q-4 -12 -8 -35q0 -10 -1 -19t-1 -20h-103v21 q0 76 39 112q41 41 125 41q80 0 121 -36q39 -39 39 -109q0 -12 -1 -24.5t-3 -22.5q-4 -10 -7 -21.5t-7 -21.5q-8 -18 -27 -39q-8 -10 -17.5 -19.5l-19.5 -19.5l-61 -55q-10 -10 -20.5 -21.5t-16.5 -21.5q-14 -20 -17 -35h199v-84h-326zM18 463v211h50l51 -146v146h39v-211 h-47l-54 147v-147h-39zM72 51h28q16 0 29 6q10 8 16 21q4 8 9 35q0 12 1 26.5t1 30.5q0 14 -1 26.5t-1 22.5q-4 23 -9 35q-8 16 -16 20q-10 8 -31 9h-26v-232zM182 1724q0 12 1 23.5t1 21.5q2 18 11 33q4 10 20 23q14 8 39 8q23 0 37 -8t20 -23q4 -6 6 -14t5 -19 q2 -10 2 -21v-24v-21t-2 -22q-2 -10 -4.5 -18t-6.5 -14q-6 -16 -20 -23q-20 -8 -37 -8q-12 0 -21.5 2t-17.5 6q-14 6 -20 23q-8 14 -11 32q0 10 -1 21.5t-1 21.5zM205 463v211h43v-211h-43zM225 1690q2 -8 2 -14.5t2 -10.5q2 -6 9 -12q8 -4 16 -4q6 0 14 4q4 2 8 12 q4 12 5 25q2 8 2 16v18q0 27 -2 37q0 10 -5 23q-4 12 -8 14q-8 4 -14 4q-8 0 -16 -4q-6 -6 -9 -14q-2 -4 -2 -10.5t-2 -12.5v-37v-34zM289 2v328h182v-54h-117v-77h111v-54h-111v-88h121v-55h-186zM291 544.5v22.5v23.5t2 21.5q0 10 2 18.5t6 16.5q10 18 23 23q14 8 38 8 q23 0 35 -6q14 -8 21 -21q8 -12 8 -24q2 -8 2 -25h-43q0 23 -6 35q-4 10 -19 10q-6 0 -14 -4q-6 -6 -8 -14q-4 -12 -4 -25q0 -10 -1 -19.5t-1 -19.5q0 -12 1 -21t1 -18q4 -16 6 -22q4 -10 8 -12t12 -3q6 0 11 3q4 0 8 8t6 16q2 6 2 27h43q0 -12 -4 -33q0 -10 -8 -27 q-10 -12 -21 -18q-16 -6 -35 -6q-25 0 -38 8q-12 4 -23 22q-8 16 -8 35q-2 10 -2 20.5zM362 1622v207h74q14 0 27 -6q6 -2 10 -6.5t8 -8.5t5 -9t3 -9q4 -16 5 -23q0 -16 -7 -28q-4 -12 -12 -19q-10 -10 -20 -12q-16 -4 -27 -4h-22v-82h-44zM375 1145q0 29 1 54.5t3 51.5 q2 25 7 47.5t13 42.5q16 39 50 62q32 24 89 24h5q51 0 80 -14q33 -12 51 -45q16 -29 26 -80q4 -25 6.5 -54.5t2.5 -64.5q0 -29 -1 -54t-3 -52q-2 -25 -7.5 -47.5t-13.5 -42.5q-16 -41 -49 -62q-34 -22 -87 -22h-5q-49 0 -82 12q-29 12 -51 43q-16 29 -27 80q-4 25 -6 55.5 t-2 65.5zM406 1735h18q12 0 20 8q6 6 7 22q0 14 -7 25q-6 8 -22 8h-16v-63zM469 463v211h43v-84l55 84h45l-57 -90l63 -121h-47l-43 86l-16 -25v-61h-43zM483 1075q0 -20 2 -37q2 -27 11 -49q6 -16 18 -26q8 -6 29 -7q12 0 28 9q10 8 17 30q6 14 10 56q2 16 2 37.5v46.5v57 v46t-2 36q-2 29 -10 51q-6 18 -19 25q-12 8 -26 8q-16 0 -31 -10q-12 -12 -16 -29q-8 -27 -11 -55q-2 -16 -2 -38v-48v-58v-45zM514 1829h47l27 -80h2l28 80h46l-54 -125v-82h-43v82zM518 92v12h68v-8v-22q2 -10 8 -15q2 -6 12 -10q12 -4 23 -4q12 0 26 10q12 8 13 31 q0 12 -2 18t-11 15q-6 6 -18 12q-6 4 -12.5 5t-16.5 5q-18 6 -37 17q-8 4 -15 9t-11 11q-10 10 -17 27q-4 10 -4 37q0 47 27 71q27 25 74 25q23 0 41 -6q10 -2 17 -6t15 -9q12 -12 21 -28q8 -20 8 -39v-10h-63q0 20 -9 36q-10 12 -28 13q-6 0 -19 -4q-8 -4 -10 -9 q-6 -6 -6 -12q-2 -4 -2 -14q0 -16 6 -25q4 -10 27 -20l51 -21q18 -10 31 -18q8 -6 20 -19q8 -12 8 -22q4 -16 4 -29q0 -51 -30 -76q-32 -22 -80 -22h-4q-55 0 -80 25t-25 69zM639 544.5v22.5v23.5t2 21.5q4 23 10 35q6 14 21 23q14 8 39 8t37 -6q12 -10 18 -21q8 -8 8 -24 q2 -8 2 -25h-43q0 12 -1 20.5t-3 14.5q-6 10 -20 10q-6 0 -15 -4q-2 -4 -4 -7t-4 -7t-2 -10.5t-2 -14.5v-39q0 -29 2 -39q0 -14 4 -22q2 -6 8 -12q4 -2 13 -3q8 0 10 3q4 0 8 8q6 6 6 16q2 6 2 27h43v-16.5t-2 -16.5q-2 -10 -10 -27q-6 -10 -21 -18q-12 -6 -34 -6 q-25 0 -39 8q-14 6 -21 22q-6 8 -10 35q-2 10 -2 20.5zM692 1622v207h78q25 0 41 -12q14 -14 14 -41q0 -20 -8 -35q-10 -14 -26 -17q14 -4 22 -10q6 -6 10 -26v-13v-14q2 -10 2 -15.5v-9.5q4 -10 9 -12v-2h-46q-4 4 -4 10q0 4 -1 6t-1 4v41q0 12 -6 19q-6 8 -18 8h-23v-88 h-43zM735 1739h17q14 0 24 6q4 4 6 9t2 15q0 29 -28 29h-21v-59zM752 1272v69h10q57 0 86 21q31 20 39 65h80v-530h-109v375h-106zM797 2v328h65v-328h-65zM803 463h45l10 43h55l11 -43h45l-58 211h-53zM864 543l21 94h2l20 -94h-43zM870 1622v207h43v-207h-43zM932 129.5 v40.5v40t4 34q6 29 18 51q12 20 35 31q18 12 51 12q55 0 80 -29q23 -27 23 -76h-64q0 12 -2 19q0 4 -2 9t-4 9q-4 4 -6 7.5t-6 5.5q-6 6 -17 6q-25 0 -34 -27q-10 -31 -11 -88v-28.5t2 -24.5q0 -27 7 -41q6 -18 14 -27q8 -8 22 -8q4 0 13 4q8 2 14 8t10 17q4 12 4 24v33h-43 v49h107v-178h-49v31q-14 -20 -29 -27q-16 -8 -41 -8q-29 0 -49 10q-18 12 -31 33q-8 16 -14 55q-2 16 -2 33.5zM956 1701.5v27.5v23t5 22q2 10 4 18t6 14q12 16 22 21q12 6 33 6q33 0 49 -16q14 -16 15 -50h-39q0 8 -2 13q0 6 -5 10q-2 6 -8 8q-4 4 -10 4q-14 0 -20 -16 q-8 -16 -9 -55v-18.5t2 -16.5q0 -12 5 -25q2 -10 8 -16t14 -6q6 0 8 2q4 2 8 6q4 2 9 10q0 4 1 7t1 7v21h-29v31h68v-111h-31v18q-6 -14 -19 -16q-10 -6 -24 -6q-20 0 -31 8q-12 6 -20 21q-4 6 -5 14t-4 18q-2 10 -2 22.5zM987 639v35h135v-35h-47v-176h-43v176h-45z M1096 897q0 35 6 66q6 29 22 59q12 29 37 53q18 25 51 53l43 41l29 29q4 8 8 14.5t8 12.5q4 10 9 30q2 8 2 16.5v18.5q0 68 -54 68q-20 0 -30 -10q-10 -6 -19 -21q-4 -12 -8 -35q-2 -10 -2 -19v-20h-102v21q0 76 39 112q41 41 125 41q82 0 118 -36q41 -41 41 -109 q0 -27 -6 -47q-4 -25 -14 -43q-4 -10 -10.5 -19.5t-14.5 -19.5q-14 -18 -39 -39l-59 -55q-25 -23 -37 -43q-8 -10 -11 -18.5t-7 -16.5h200v-84h-325zM1135 1622v207h41v-80h49v80h41v-207h-41v92h-49v-92h-41zM1155 463v211h119v-35h-76v-49h72v-35h-72v-57h80v-35h-123z M1212 2v328h76l80 -224h2v224h60v-328h-74l-82 229v-229h-62zM1298 1794v35h134v-35h-46v-172h-43v172h-45zM1305 520v8h43v-6q0 -10 2 -14q0 -2 4 -10q4 -4 8 -6t14 -3q10 0 17 7q8 6 8 20q0 8 -2 12q0 4 -6 9q-2 4 -11 8l-18 6q-8 4 -14.5 6t-10.5 4q-14 6 -18 14 q-8 6 -10 17q-2 8 -2 24q0 33 16 48q16 14 49 14h13.5t13.5 -2q10 -4 20 -10q10 -10 13 -19q6 -10 6 -26v-7h-41q0 14 -6 25q-8 8 -19 8q-4 0 -6 -1t-4 -1q-4 -2 -8 -6t-4 -8v-8q0 -12 4 -17q2 -6 16 -12l33 -14q16 -8 20 -13q8 -6 13 -12q6 -6 6 -14q2 -6 2 -19 q0 -35 -19 -49q-20 -14 -55 -14t-51 16t-16 45z" />
<glyph unicode="z" horiz-adv-x="2617" d="M8 658q2 90 49 163q47 76 135.5 118t198.5 44l-364 797l372 -191q20 72 94 119t175 47q70 0 144.5 -20.5t142 -56.5t126 -85t95.5 -104l20 -43l248 2h13q161 0 321 -46q166 -48 311 -136t260.5 -213t187.5 -279q73 -160 73 -292q0 -127 -62 -219q-62 -93 -180.5 -146.5 t-286.5 -53.5q-129 -2 -248 -2q-102 -2 -209.5 -2h-179.5l-2 2l-598 1301q-25 37 -70 61.5t-90 24.5q-51 0 -70 -29q-8 -13 -8 -28q0 -18 10 -39l236 -514l10 -23l-137 -227l-16 10q-12 6 -36 16.5t-49.5 21.5t-51 18.5t-44.5 7.5q-74 0 -102 -46q-13 -22 -13 -47 q0 -27 15 -57l23 -49q14 -35 42.5 -63.5t63.5 -51t75 -35t77 -12.5q86 0 114 55l8 19l345 -195l-13 -16q-47 -78 -135 -121t-203 -43h-6q-113 0 -230.5 38t-222 102.5t-188.5 151.5t-127 183q-43 90 -43 176v7zM1438 998q6 -36 24 -76l211 -461l47 -96q8 0 55 1t162 3 q68 0 117 23.5t74.5 61.5t27.5 90q0 4 1 9q0 48 -25 102l-86 185q-27 59 -76 110t-110.5 90t-131 60.5t-137.5 21.5q-66 0 -100.5 -16t-46.5 -44q-8 -19 -8 -41q0 -11 2 -23z" />
<glyph unicode="&#xa0;" />
<glyph unicode="&#x2000;" horiz-adv-x="999" />
<glyph unicode="&#x2001;" horiz-adv-x="1999" />
<glyph unicode="&#x2002;" horiz-adv-x="999" />
<glyph unicode="&#x2003;" horiz-adv-x="1999" />
<glyph unicode="&#x2004;" horiz-adv-x="666" />
<glyph unicode="&#x2005;" horiz-adv-x="499" />
<glyph unicode="&#x2006;" horiz-adv-x="333" />
<glyph unicode="&#x2007;" horiz-adv-x="333" />
<glyph unicode="&#x2008;" horiz-adv-x="249" />
<glyph unicode="&#x2009;" horiz-adv-x="399" />
<glyph unicode="&#x200a;" horiz-adv-x="111" />
<glyph unicode="&#x202f;" horiz-adv-x="399" />
<glyph unicode="&#x205f;" horiz-adv-x="499" />
<glyph unicode="&#xe000;" horiz-adv-x="1024" d="M0 0z" />
</font>
</defs>
</svg>
